<svg width="80" height="80" viewBox="0 0 80 80" fill="none" xmlns="http://www.w3.org/2000/svg">
<circle cx="40" cy="40" r="40" fill="#FFA51D" fill-opacity="0.15"/>
<g clip-path="url(#clip0)">
<path d="M40.6558 35.75C40.5992 35.7857 40.5336 35.8046 40.4666 35.8046C40.3996 35.8046 40.334 35.7857 40.2773 35.75C40.3008 35.7228 40.3299 35.701 40.3625 35.686C40.3952 35.6711 40.4307 35.6633 40.4666 35.6633C40.5025 35.6633 40.538 35.6711 40.5707 35.686C40.6033 35.701 40.6324 35.7228 40.6558 35.75Z" stroke="black" stroke-width="6" stroke-miterlimit="10"/>
<path d="M40.5452 35.3494L40.6735 35.2905L40.4669 35.1956L40.2603 35.2905L40.388 35.3491" stroke="black" stroke-width="5" stroke-miterlimit="10"/>
<path d="M40.6594 35.3006V35.4156" stroke="black" stroke-width="6" stroke-miterlimit="10"/>
<path d="M40.6546 35.7884C40.6439 35.7771 40.6304 35.7688 40.6155 35.7644C40.6005 35.76 40.5847 35.7597 40.5696 35.7634V35.6435C40.6007 35.642 40.6313 35.6528 40.6546 35.6735C40.665 35.6617 40.6783 35.6527 40.6932 35.6474C40.708 35.6422 40.724 35.6408 40.7396 35.6435V35.7632C40.7272 35.7607 40.7144 35.7607 40.702 35.7632C40.6841 35.767 40.6677 35.7757 40.6546 35.7884Z" fill="black" stroke="black" stroke-width="6" stroke-miterlimit="10" stroke-linecap="round"/>
<path d="M40.467 35.5744C40.5361 35.5744 40.592 35.5184 40.592 35.4494C40.592 35.3804 40.5361 35.3244 40.467 35.3244C40.398 35.3244 40.342 35.3804 40.342 35.4494C40.342 35.5184 40.398 35.5744 40.467 35.5744Z" stroke="black" stroke-width="6" stroke-miterlimit="10"/>
</g>
<path d="M52.5 60C47.9668 62.8564 42.718 64.3721 37.36 64.3721C32.0019 64.3721 26.7532 62.8564 22.22 60C24.0975 57.8248 26.4217 56.0798 29.0343 54.8836C31.6469 53.6875 34.4866 53.0683 37.36 53.0683C40.2334 53.0683 43.0731 53.6875 45.6857 54.8836C48.2983 56.0798 50.6224 57.8248 52.5 60Z" stroke="black" stroke-width="3" stroke-miterlimit="10"/>
<path d="M43.624 27.948L53.892 23.236L37.36 15.648L20.832 23.236L31.048 27.924" stroke="black" stroke-width="3" stroke-miterlimit="10"/>
<path d="M52.7603 24.044V33.248" stroke="black" stroke-width="3" stroke-miterlimit="10"/>
<rect x="52.3684" y="61.1582" width="2.85682" height="2.85682" transform="rotate(45 52.3684 61.1582)" fill="#FF5C00"/>
<path d="M52.3684 63.068C51.5126 62.1638 50.4325 61.5023 49.2381 61.151C48.0436 60.7997 46.7775 60.7711 45.5684 61.068V51.48C48.0618 51.3591 50.5032 52.2208 52.3684 53.88C53.2016 52.9314 54.2645 52.2126 55.4551 51.7924C56.6457 51.3722 57.9243 51.2646 59.1684 51.48V61.056C58.1759 60.8536 57.1528 60.8536 56.1604 61.056C54.7314 61.3543 53.4165 62.052 52.3684 63.068Z" fill="#FF5C00" stroke="#FF5C00" stroke-width="3" stroke-miterlimit="10" stroke-linecap="round"/>
<path d="M37.3601 45.952C42.883 45.952 47.3601 41.4748 47.3601 35.952C47.3601 30.4291 42.883 25.952 37.3601 25.952C31.8373 25.952 27.3601 30.4291 27.3601 35.952C27.3601 41.4748 31.8373 45.952 37.3601 45.952Z" stroke="black" stroke-width="3" stroke-miterlimit="10"/>
<defs>
<clipPath id="clip0">
<rect width="1" height="1" fill="white" transform="translate(40 35)"/>
</clipPath>
</defs>
</svg>
