<svg width="77" height="80" viewBox="0 0 77 80" fill="none" xmlns="http://www.w3.org/2000/svg">
<circle cx="37" cy="40" r="40" fill="#FFA51D" fill-opacity="0.15"/>
<path d="M52.4165 59.9C47.8833 62.7564 42.6345 64.2721 37.2765 64.2721C31.9184 64.2721 26.6697 62.7564 22.1365 59.9C24.014 57.7248 26.3382 55.9798 28.9508 54.7836C31.5634 53.5874 34.4031 52.9683 37.2765 52.9683C40.1499 52.9683 42.9896 53.5874 45.6022 54.7836C48.2148 55.9798 50.5389 57.7248 52.4165 59.9Z" stroke="black" stroke-width="3" stroke-miterlimit="10"/>
<path d="M42.9805 28.116L53.7925 23.156L37.2605 15.568L20.7285 23.156L30.5885 27.68" stroke="black" stroke-width="3" stroke-miterlimit="10"/>
<path d="M52.6567 24.484V33.688" stroke="black" stroke-width="3" stroke-miterlimit="10"/>
<path d="M37.2605 45.872C42.7833 45.872 47.2605 41.3948 47.2605 35.872C47.2605 30.3491 42.7833 25.872 37.2605 25.872C31.7376 25.872 27.2605 30.3491 27.2605 35.872C27.2605 41.3948 31.7376 45.872 37.2605 45.872Z" stroke="black" stroke-width="3" stroke-miterlimit="10"/>
<path d="M43.8965 63.66L44.6685 64.432H60.1325L60.9045 63.66V57.62H43.8965V63.66ZM60.1325 53.2H55.9685V51.28L55.2165 50.508H49.6685L48.8925 51.28V53.2H44.6685L43.8965 53.976V58.72H60.9045V53.976L60.1325 53.2ZM54.4165 53.2H50.4165V52.052H54.4165V53.2Z" fill="#FF5C00"/>
</svg>
