<svg width="80" height="80" viewBox="0 0 80 80" fill="none" xmlns="http://www.w3.org/2000/svg">
<circle cx="40" cy="40" r="40" fill="#FFA51D" fill-opacity="0.15"/>
<path d="M51.22 54.828C46.6868 57.6844 41.438 59.2001 36.0799 59.2001C30.7219 59.2001 25.4731 57.6844 20.9399 54.828C22.8175 52.6528 25.1417 50.9078 27.7543 49.7116C30.3669 48.5155 33.2065 47.8963 36.0799 47.8963C38.9534 47.8963 41.793 48.5155 44.4056 49.7116C47.0182 50.9078 49.3424 52.6528 51.22 54.828Z" stroke="black" stroke-width="3" stroke-miterlimit="10"/>
<path d="M36.0798 40.8C41.6027 40.8 46.0798 36.3228 46.0798 30.8C46.0798 25.2771 41.6027 20.8 36.0798 20.8C30.557 20.8 26.0798 25.2771 26.0798 30.8C26.0798 36.3228 30.557 40.8 36.0798 40.8Z" stroke="black" stroke-width="3" stroke-miterlimit="10"/>
<path d="M58.0638 52.572L52.2598 58.376L46.4558 52.572C45.8207 51.9347 45.4641 51.0717 45.4641 50.172C45.4641 49.2723 45.8207 48.4093 46.4558 47.772C46.7681 47.4522 47.1414 47.1985 47.5538 47.0261C47.9661 46.8536 48.4089 46.7658 48.8558 46.768C49.305 46.7648 49.7503 46.8507 50.1661 47.0206C50.5819 47.1906 50.96 47.4412 51.2783 47.7581C51.5967 48.075 51.8491 48.4518 52.021 48.8668C52.1929 49.2818 52.2809 49.7268 52.2798 50.176C52.2787 49.7268 52.3667 49.2818 52.5386 48.8668C52.7105 48.4518 52.9629 48.075 53.2813 47.7581C53.5996 47.4412 53.9776 47.1906 54.3934 47.0206C54.8092 46.8507 55.2546 46.7648 55.7038 46.768C56.1474 46.7685 56.5864 46.8575 56.995 47.03C57.4037 47.2024 57.7739 47.4546 58.0838 47.772C58.7162 48.4119 59.0692 49.2764 59.0655 50.1761C59.0617 51.0758 58.7015 51.9373 58.0638 52.572Z" fill="#FF5C00" stroke="#FF5C00" stroke-width="3" stroke-linecap="round" stroke-linejoin="round"/>
</svg>
