<svg width="80" height="82" viewBox="0 0 80 82" fill="none" xmlns="http://www.w3.org/2000/svg">
<circle cx="40" cy="42" r="40" fill="#FFA51D" fill-opacity="0.15"/>
<path d="M58.5042 54.96C54.106 57.7302 49.0141 59.2001 43.8162 59.2001C38.6183 59.2001 33.5264 57.7302 29.1282 54.96C30.949 52.8487 33.2036 51.1548 35.7383 49.9937C38.273 48.8326 41.0282 48.2316 43.8162 48.2316C46.6042 48.2316 49.3594 48.8326 51.8941 49.9937C54.4287 51.1548 56.6833 52.8487 58.5042 54.96V54.96Z" stroke="black" stroke-width="3" stroke-miterlimit="10"/>
<path d="M37.3561 24.4C38.7931 23.1167 40.5797 22.2904 42.4882 22.0264C44.3966 21.7625 46.3405 22.0728 48.0719 22.9179C49.8033 23.763 51.2438 25.1045 52.2098 26.7715C53.1758 28.4384 53.6235 30.3553 53.4958 32.2777C53.3681 34.2001 52.6709 36.0409 51.4929 37.5655C50.315 39.0901 48.7097 40.2294 46.8818 40.8381C45.0538 41.4468 43.086 41.4974 41.2292 40.9834C39.3724 40.4693 37.7108 39.414 36.4561 37.952" stroke="black" stroke-width="3" stroke-miterlimit="10"/>
<path d="M45.1721 54.828C40.6389 57.6844 35.3901 59.2001 30.0321 59.2001C24.674 59.2001 19.4253 57.6844 14.8921 54.828C16.7696 52.6528 19.0938 50.9078 21.7064 49.7116C24.319 48.5155 27.1587 47.8963 30.0321 47.8963C32.9055 47.8963 35.7452 48.5155 38.3578 49.7116C40.9704 50.9078 43.2946 52.6528 45.1721 54.828Z" fill="black" stroke="black" stroke-width="3" stroke-miterlimit="10"/>
<path d="M30.032 40.8C35.5548 40.8 40.032 36.3228 40.032 30.8C40.032 25.2771 35.5548 20.8 30.032 20.8C24.5091 20.8 20.032 25.2771 20.032 30.8C20.032 36.3228 24.5091 40.8 30.032 40.8Z" stroke="black" stroke-width="3" stroke-miterlimit="10"/>
<path d="M46.2335 53.7768L49.1215 57.1728C49.1215 57.1728 42.9295 62.6968 22.8455 58.6168L33.9415 53.3768L46.2335 53.7768Z" fill="black"/>
<path d="M47.5171 57.9449L48.2891 58.7169H63.7531L64.5251 57.9449V51.9049H47.5171V57.9449ZM63.7531 47.4849H59.5931V45.5809L58.8091 44.7809H53.2811L52.5051 45.5809V47.5009H48.2811L47.5171 48.2609V53.0049H64.5171V48.2609L63.7531 47.4849ZM58.0451 47.4849H54.0451V46.3369H58.0451V47.4849Z" fill="#FF5C00"/>
<path d="M53.5171 58.999C53.3745 58.999 40.7738 63.647 22.8687 59.799C30.1984 55.047 36.547 58.119 36.547 58.119L53.5171 58.999Z" fill="black"/>
</svg>
