<svg width="25" height="25" viewBox="0 0 25 25" fill="none" xmlns="http://www.w3.org/2000/svg">
<circle cx="12.6211" cy="12.3965" r="12" fill="white"/>
<path d="M12.6786 6.73633C11.1667 6.73633 10.978 6.74312 10.3843 6.76893C9.79161 6.79611 9.38812 6.88713 9.03333 7.02163C8.6674 7.16021 8.35667 7.34633 8.04733 7.64839C7.73799 7.95045 7.54691 8.25341 7.40546 8.61117C7.26772 8.95761 7.17404 9.3516 7.14667 9.93035C7.11885 10.51 7.11328 10.6943 7.11328 12.1707C7.11328 13.647 7.12024 13.8313 7.14667 14.411C7.1745 14.9893 7.26772 15.3837 7.40546 15.7301C7.54738 16.087 7.73799 16.3909 8.04733 16.6929C8.35667 16.9945 8.66694 17.1816 9.03333 17.3197C9.38858 17.4537 9.79207 17.5457 10.3843 17.5724C10.978 17.5995 11.1667 17.605 12.6786 17.605C14.1906 17.605 14.3793 17.5982 14.9729 17.5724C15.5652 17.5452 15.9691 17.4537 16.3239 17.3197C16.6894 17.1811 17.0006 16.9945 17.3099 16.6929C17.6188 16.3909 17.8103 16.0884 17.9518 15.7301C18.0891 15.3837 18.1832 14.9893 18.2106 14.411C18.2384 13.8313 18.244 13.647 18.244 12.1707C18.244 10.6943 18.237 10.51 18.2106 9.93035C18.1828 9.35205 18.0891 8.95716 17.9518 8.61117C17.8099 8.25386 17.6188 7.95045 17.3099 7.64839C17.0006 7.34633 16.6908 7.15975 16.3239 7.02163C15.9691 6.88713 15.5652 6.79565 14.9729 6.76893C14.3793 6.74176 14.1906 6.73633 12.6786 6.73633ZM12.6786 7.71451C14.1641 7.71451 14.3413 7.72175 14.928 7.74666C15.4706 7.77157 15.7651 7.85942 15.9608 7.9346C16.2214 8.03287 16.406 8.15061 16.6017 8.34036C16.7961 8.53056 16.9166 8.71125 17.0173 8.96576C17.0933 9.15687 17.1842 9.44443 17.2088 9.97428C17.2353 10.5476 17.2413 10.7197 17.2413 12.1707C17.2413 13.6216 17.2343 13.7942 17.207 14.367C17.1787 14.8969 17.0882 15.1844 17.0117 15.3755C16.9078 15.6301 16.7896 15.8103 16.5948 16.0014C16.4005 16.1911 16.2126 16.3089 15.9548 16.4072C15.76 16.4814 15.4608 16.5702 14.9182 16.5942C14.3274 16.62 14.1534 16.6259 12.6647 16.6259C11.1755 16.6259 11.0016 16.6191 10.4112 16.5924C9.86813 16.5648 9.56899 16.4765 9.3742 16.4017C9.11031 16.3003 8.92898 16.1848 8.73465 15.9946C8.5394 15.8049 8.41465 15.6215 8.31725 15.3697C8.24073 15.1795 8.15076 14.8874 8.12246 14.3575C8.10159 13.7869 8.09417 13.6108 8.09417 12.1639C8.09417 10.7165 8.10159 10.5399 8.12246 9.96251C8.15076 9.43266 8.24073 9.14102 8.31725 8.95082C8.41465 8.69269 8.5394 8.51607 8.73465 8.32542C8.92898 8.13567 9.11031 8.01339 9.3742 7.91875C9.56899 7.84357 9.86164 7.75526 10.4043 7.72809C10.9956 7.70771 11.1695 7.70092 12.6578 7.70092L12.6786 7.71451ZM12.6786 9.38013C11.0995 9.38013 9.82082 10.63 9.82082 12.1707C9.82082 13.7126 11.1009 14.9612 12.6786 14.9612C14.2578 14.9612 15.5364 13.7113 15.5364 12.1707C15.5364 10.6287 14.2564 9.38013 12.6786 9.38013ZM12.6786 13.9821C11.6537 13.9821 10.8235 13.1715 10.8235 12.1707C10.8235 11.1698 11.6537 10.3592 12.6786 10.3592C13.7036 10.3592 14.5337 11.1698 14.5337 12.1707C14.5337 13.1715 13.7036 13.9821 12.6786 13.9821ZM16.3174 9.27008C16.3174 9.63011 16.0178 9.9222 15.6496 9.9222C15.2809 9.9222 14.9818 9.62965 14.9818 9.27008C14.9818 8.91051 15.2814 8.61842 15.6496 8.61842C16.0174 8.61796 16.3174 8.91051 16.3174 9.27008Z" fill="#25201D"/>
</svg>
