<svg width="25" height="25" viewBox="0 0 25 25" fill="none" xmlns="http://www.w3.org/2000/svg">
<circle cx="12.6953" cy="12.3965" r="12" fill="white"/>
<path d="M9.83089 16.6997V9.36664H7.33477V16.6997H9.83089ZM8.58315 8.36484C9.4536 8.36484 9.9954 7.80175 9.9954 7.09807C9.97919 6.37852 9.45363 5.83105 8.59967 5.83105C7.74585 5.83105 7.1875 6.37853 7.1875 7.09807C7.1875 7.80178 7.72917 8.36484 8.56686 8.36484H8.58308H8.58315ZM11.2125 16.6997H13.7086V12.6046C13.7086 12.3854 13.7248 12.1665 13.7907 12.0098C13.9712 11.5719 14.3819 11.1184 15.0714 11.1184C15.9747 11.1184 16.336 11.7908 16.336 12.7766V16.6997H18.832V12.4949C18.832 10.2425 17.6005 9.19449 15.9582 9.19449C14.6117 9.19449 14.0205 9.92945 13.692 10.43H13.7087V9.36649H11.2125C11.2453 10.0546 11.2125 16.6996 11.2125 16.6996L11.2125 16.6997Z" fill="#25201D"/>
</svg>
