<svg width="25" height="25" viewBox="0 0 25 25" fill="none" xmlns="http://www.w3.org/2000/svg">
<circle cx="12.1582" cy="12.3965" r="12" fill="white"/>
<path d="M18.685 8.81104C18.2404 9.00671 17.7656 9.14 17.2657 9.20086C17.7752 8.89353 18.1671 8.40915 18.3524 7.8312C17.8747 8.11037 17.3451 8.31358 16.7814 8.42675C16.3313 7.94438 15.6897 7.64258 14.9773 7.64258C13.6122 7.64258 12.5054 8.75068 12.5054 10.1158C12.5054 10.312 12.528 10.5006 12.5692 10.6812C10.5144 10.5841 8.69317 9.59622 7.47434 8.10282C7.25981 8.46599 7.13973 8.888 7.13973 9.34774C7.13973 10.2079 7.57683 10.9639 8.239 11.408C7.83356 11.3949 7.45223 11.2833 7.11964 11.0982V11.1289C7.11964 12.3285 7.97021 13.329 9.10213 13.5568C8.89464 13.6127 8.67559 13.6428 8.45101 13.6428C8.29326 13.6428 8.14203 13.6277 7.99081 13.5996C8.30783 14.5819 9.21919 15.2982 10.3039 15.3183C9.45985 15.9818 8.39022 16.3771 7.23821 16.3771C7.04227 16.3771 6.84683 16.3656 6.65039 16.3434C7.75016 17.0446 9.04586 17.4546 10.4471 17.4546C14.9959 17.4546 17.4803 13.6841 17.4803 10.4196C17.4803 10.3145 17.4803 10.2084 17.4727 10.1027C17.9555 9.75617 18.3771 9.31806 18.7086 8.8211L18.685 8.81104Z" fill="#25201D"/>
</svg>
