<svg width="173" height="40" viewBox="0 0 173 40" fill="none" xmlns="http://www.w3.org/2000/svg">
<g clip-path="url(#clip0)">
<path d="M19.808 39.9984C30.7476 39.9984 39.6159 31.0445 39.6159 19.9992C39.6159 8.95395 30.7476 0 19.808 0C8.86832 0 0 8.95395 0 19.9992C0 31.0445 8.86832 39.9984 19.808 39.9984Z" fill="url(#paint0_linear)"/>
<path d="M5.50781 11.4004L16.5286 6.78432L20.6234 17.5262L25.8726 29.5235L21.8794 36.3915L15.2663 35.125L5.50781 11.4004Z" fill="#242120"/>
<path d="M18.0943 3.9133L29.9738 4.70922L28.3815 32.6014L22.1251 36.6189L16.4004 31.8686L18.0943 3.9133Z" fill="white"/>
<path d="M22.3522 34.4901C22.9016 34.4901 23.347 34.051 23.347 33.5094C23.347 32.9678 22.9016 32.5287 22.3522 32.5287C21.8028 32.5287 21.3574 32.9678 21.3574 33.5094C21.3574 34.051 21.8028 34.4901 22.3522 34.4901Z" fill="#242120"/>
<path d="M52.6611 31.3111C51.4922 28.8897 50.293 26.1103 49.0636 22.9729C47.7803 19.6627 46.6627 16.2894 45.7148 12.8659H50.2242C50.4807 13.9008 50.7789 15.0115 51.1189 16.198C51.4588 17.3845 51.8212 18.5716 52.2059 19.7592C52.5907 20.9446 52.988 22.0964 53.3978 23.2145C53.8076 24.3326 54.1877 25.337 54.538 26.2276C54.8873 25.3349 55.2612 24.3305 55.6595 23.2145C56.0578 22.0985 56.4489 20.9467 56.8326 19.7592C57.2184 18.5716 57.587 17.3845 57.9384 16.198C58.2898 15.0115 58.5933 13.9008 58.8487 12.8659H63.2157C62.2684 16.2894 61.1513 19.6626 59.8685 22.9729C58.6391 26.1113 57.44 28.8907 56.2711 31.3111H52.6611Z" fill="#242120"/>
<path d="M72.3978 12.4142C73.7941 12.4142 74.9698 12.5901 75.9249 12.9417C76.7929 13.2413 77.5755 13.7497 78.2054 14.423C78.7927 15.0847 79.2138 15.8793 79.4332 16.7397C79.6869 17.7115 79.8105 18.7132 79.8008 19.7181V30.8943C79.148 31.0364 78.1647 31.2069 76.8509 31.4059C75.376 31.6173 73.8875 31.7176 72.3978 31.706C71.3882 31.7157 70.3807 31.6097 69.3947 31.3901C68.56 31.2116 67.7699 30.864 67.072 30.3684C66.4278 29.8933 65.9116 29.263 65.5705 28.5349C65.2087 27.7832 65.0283 26.8546 65.0293 25.7492C65.0293 24.6963 65.2326 23.8015 65.6393 23.0645C66.0403 22.3434 66.6101 21.7323 67.2988 21.2847C68.0411 20.8081 68.864 20.4735 69.7263 20.2977C70.6729 20.0944 71.6382 19.9939 72.6059 19.9976C73.0962 19.9993 73.586 20.0289 74.073 20.0861C74.626 20.1517 75.1744 20.2514 75.7153 20.3846V19.6771C75.7178 19.2013 75.6589 18.7272 75.5401 18.2668C75.4303 17.8166 75.2118 17.4007 74.9043 17.0563C74.5967 16.7119 74.2096 16.4496 73.7774 16.2928C73.2 16.0881 72.5903 15.9923 71.9787 16.0101C71.0781 16.0042 70.1787 16.075 69.2899 16.2217C68.6134 16.3275 67.9472 16.4923 67.2988 16.7145L66.7749 13.2654C67.5428 13.0219 68.3268 12.8335 69.121 12.7017C70.2027 12.5079 71.2993 12.4117 72.3978 12.4142ZM72.7482 28.3154C74.0516 28.3154 75.0422 28.2448 75.72 28.1038V23.3724C75.3868 23.2811 75.0483 23.2104 74.7065 23.1608C74.2208 23.0875 73.7303 23.0522 73.2393 23.055C72.7682 23.0564 72.2978 23.0918 71.8316 23.1608C71.3843 23.2228 70.9491 23.3539 70.5412 23.5493C70.169 23.7262 69.8493 23.9984 69.6137 24.3389C69.3695 24.7216 69.2482 25.1711 69.2665 25.626C69.2665 26.6367 69.5793 27.3363 70.205 27.7248C70.8306 28.1132 71.6783 28.3101 72.7482 28.3154Z" fill="#242120"/>
<path d="M89.5417 28.2443C90.6595 28.2443 91.4749 28.109 91.988 27.8384C92.501 27.5679 92.757 27.1041 92.7559 26.4472C92.7559 25.8344 92.4822 25.3291 91.9348 24.9311C91.3874 24.5331 90.4849 24.0978 89.2273 23.6251C88.5078 23.3644 87.803 23.0645 87.1158 22.7265C86.5148 22.4369 85.9564 22.0649 85.4562 21.6211C84.989 21.1929 84.616 20.6705 84.3614 20.0877C84.0741 19.3877 83.937 18.6341 83.9594 17.8767C83.9594 16.1859 84.5767 14.852 85.8113 13.875C87.0459 12.898 88.7216 12.4106 90.8383 12.4127C91.8691 12.4098 92.8976 12.5103 93.9087 12.7127C94.6552 12.8507 95.3904 13.0455 96.1078 13.2954L95.3399 16.7508C94.7645 16.503 94.1683 16.308 93.5583 16.168C92.7336 15.9814 91.89 15.8929 91.0448 15.9043C90.1835 15.9043 89.4849 16.0512 88.9489 16.3449C88.6987 16.468 88.4895 16.662 88.3467 16.9032C88.204 17.1443 88.1338 17.4223 88.1449 17.703C88.1393 17.9813 88.1926 18.2575 88.3014 18.5132C88.4248 18.7729 88.6109 18.9972 88.8425 19.1654C89.1581 19.4007 89.4973 19.6018 89.8545 19.7655C90.3558 19.9983 90.869 20.2038 91.392 20.3814C92.2621 20.6991 93.1129 21.0683 93.94 21.4868C94.5757 21.8062 95.1591 22.2221 95.6699 22.7202C96.113 23.1622 96.4529 23.6985 96.6647 24.2899C96.8883 24.9715 96.9941 25.6868 96.9775 26.4045C96.9775 28.1669 96.3315 29.5008 95.0395 30.4063C93.7476 31.3117 91.9025 31.7644 89.5042 31.7644C87.8994 31.7644 86.6074 31.6291 85.6283 31.3585C84.9306 31.1785 84.2429 30.9608 83.5684 30.7063L84.3051 27.1515C85.0404 27.4453 85.7932 27.6927 86.5589 27.8921C87.5339 28.1396 88.5365 28.2579 89.5417 28.2443Z" fill="#242120"/>
<path d="M105.64 7.47759C105.64 8.27826 105.383 8.91152 104.872 9.38213C104.38 9.8444 103.73 10.0968 103.057 10.0865C102.373 10.101 101.71 9.84873 101.205 9.38213C100.692 8.90837 100.438 8.27668 100.438 7.47759C100.438 6.67851 100.692 6.00892 101.205 5.53832C101.71 5.07171 102.373 4.81945 103.057 4.83398C103.729 4.82451 104.379 5.07675 104.872 5.53832C105.384 6.00892 105.64 6.65535 105.64 7.47759ZM105.186 31.3111H100.963V12.8722H105.186V31.3111Z" fill="#242120"/>
<path d="M110.354 8.00664L114.577 7.30231V12.8722H121.071V16.4333H114.58V23.9425C114.58 25.4238 114.812 26.4814 115.277 27.1152C115.742 27.749 116.534 28.0648 117.652 28.0627C118.34 28.0721 119.027 27.9888 119.694 27.8148C120.172 27.6881 120.641 27.5352 121.102 27.3568L121.8 30.7411C121.174 30.9995 120.532 31.2174 119.879 31.3933C118.97 31.6352 118.033 31.7526 117.093 31.7423C115.789 31.7423 114.7 31.5654 113.827 31.2117C113.01 30.9009 112.292 30.3707 111.752 29.6782C111.216 28.9592 110.845 28.1283 110.668 27.2462C110.447 26.1739 110.342 25.0804 110.355 23.9852L110.354 8.00664Z" fill="#242120"/>
<path d="M129.875 7.47759C129.875 8.27826 129.618 8.91152 129.107 9.38213C128.614 9.8444 127.964 10.0968 127.292 10.0865C126.609 10.1006 125.946 9.84835 125.442 9.38213C124.929 8.90837 124.674 8.27668 124.674 7.47759C124.674 6.67851 124.929 6.00892 125.442 5.53832C125.946 5.07171 126.61 4.81945 127.294 4.83398C127.966 4.82451 128.615 5.07675 129.108 5.53832C129.619 6.00892 129.875 6.65535 129.875 7.47759ZM129.421 31.3111H125.198V12.8722H129.421V31.3111Z" fill="#242120"/>
<path d="M135.227 30.0051C135.234 30.2149 135.197 30.4239 135.118 30.6181C135.039 30.8123 134.92 30.9872 134.769 31.1311C134.465 31.4104 134.069 31.5653 133.659 31.5653C133.248 31.5653 132.853 31.4104 132.549 31.1311C132.4 30.986 132.282 30.8107 132.205 30.6167C132.127 30.4227 132.091 30.2143 132.099 30.0051C132.092 29.7947 132.128 29.5852 132.206 29.3897C132.284 29.1943 132.4 29.0172 132.549 28.8697C132.85 28.5845 133.247 28.4258 133.659 28.4258C134.071 28.4258 134.468 28.5845 134.769 28.8697C134.919 29.0161 135.038 29.1927 135.117 29.3883C135.196 29.5839 135.233 29.794 135.227 30.0051Z" fill="#EE3C24"/>
<path d="M137.203 26.1582C137.198 25.4292 137.317 24.7048 137.555 24.0167C137.773 23.3787 138.116 22.7913 138.563 22.2891C139.007 21.7973 139.549 21.407 140.155 21.1441C140.824 20.8589 141.544 20.7175 142.27 20.7288C143.207 20.724 144.137 20.9054 145.005 21.2626L144.497 23.2145C144.197 23.0876 143.886 22.9888 143.568 22.9192C143.205 22.8384 142.835 22.7986 142.463 22.8007C141.538 22.8007 140.834 23.0934 140.352 23.6788C139.87 24.2642 139.629 25.0901 139.628 26.1566C139.628 27.1831 139.856 27.9959 140.313 28.5949C140.77 29.194 141.539 29.4935 142.62 29.4935C143.021 29.4939 143.42 29.4542 143.813 29.375C144.161 29.309 144.501 29.2102 144.83 29.0797L145.163 31.0537C144.785 31.2218 144.387 31.3412 143.979 31.4091C143.441 31.5156 142.894 31.5685 142.346 31.567C141.568 31.5839 140.793 31.4465 140.067 31.1627C139.455 30.9153 138.907 30.5302 138.464 30.0367C138.03 29.5388 137.707 28.9529 137.516 28.3185C137.303 27.6189 137.197 26.8902 137.203 26.1582Z" fill="#EE3C24"/>
<path d="M156.033 26.1392C156.043 26.8977 155.925 27.6524 155.683 28.3706C155.47 29.0048 155.133 29.5888 154.69 30.0873C154.256 30.5642 153.726 30.9412 153.135 31.1927C152.501 31.4618 151.818 31.5961 151.13 31.5875C150.445 31.5968 149.766 31.4624 149.136 31.1927C148.549 30.9391 148.022 30.5623 147.59 30.0873C147.146 29.588 146.804 29.0045 146.585 28.3706C146.336 27.654 146.213 26.8987 146.223 26.1392C146.212 25.3833 146.335 24.6315 146.585 23.9188C146.806 23.2858 147.152 22.7045 147.601 22.2101C148.036 21.7377 148.566 21.3641 149.154 21.1141C149.781 20.8527 150.452 20.7217 151.13 20.7288C151.81 20.722 152.485 20.853 153.115 21.1141C153.709 21.3598 154.243 21.7339 154.679 22.2101C155.122 22.7072 155.464 23.2879 155.685 23.9188C155.93 24.6323 156.048 25.3841 156.033 26.1392ZM153.611 26.1392C153.611 25.1127 153.392 24.2999 152.955 23.7009C152.738 23.4208 152.46 23.1944 152.143 23.0386C151.826 22.8829 151.478 22.802 151.126 22.802C150.774 22.802 150.426 22.8829 150.109 23.0386C149.792 23.1944 149.514 23.4208 149.297 23.7009C148.861 24.2989 148.642 25.1117 148.641 26.1392C148.64 27.1668 148.859 27.9895 149.297 28.6075C149.513 28.89 149.79 29.1188 150.107 29.2762C150.424 29.4336 150.773 29.5154 151.126 29.5154C151.479 29.5154 151.828 29.4336 152.145 29.2762C152.462 29.1188 152.739 28.89 152.955 28.6075C153.392 28.0011 153.611 27.1783 153.611 26.1392Z" fill="#EE3C24"/>
<path d="M164.304 25.8818C164.304 24.8037 164.171 24.0241 163.904 23.543C163.637 23.0618 163.138 22.8213 162.407 22.8213C162.119 22.8234 161.832 22.8435 161.547 22.8813C161.234 22.9208 160.999 22.9539 160.843 22.9792V31.3112H158.477V21.3194C159.065 21.1596 159.663 21.0341 160.266 20.9436C161.039 20.8235 161.82 20.7643 162.603 20.7667C163.191 20.7475 163.778 20.8413 164.333 21.0431C164.753 21.2075 165.135 21.4562 165.457 21.7743C165.632 21.6496 165.815 21.5372 166.005 21.4379C166.245 21.3124 166.494 21.2037 166.749 21.1126C167.033 21.0101 167.324 20.9278 167.619 20.8662C167.924 20.8 168.236 20.7667 168.548 20.7667C169.22 20.7437 169.889 20.8615 170.514 21.1126C170.997 21.3177 171.416 21.6518 171.725 22.079C172.034 22.5287 172.242 23.0414 172.333 23.5809C172.447 24.216 172.503 24.8605 172.499 25.5059V31.3096H170.132V25.8818C170.132 24.8037 170.002 24.0241 169.741 23.543C169.481 23.0618 168.979 22.8213 168.235 22.8213C167.869 22.8194 167.505 22.883 167.161 23.0092C166.892 23.099 166.636 23.2215 166.397 23.374C166.504 23.7147 166.577 24.0655 166.613 24.421C166.652 24.8146 166.672 25.2099 166.671 25.6054V31.3112H164.304V25.8818Z" fill="#EE3C24"/>
</g>
<defs>
<linearGradient id="paint0_linear" x1="26.5853" y1="38.7982" x2="12.8005" y2="1.28693" gradientUnits="userSpaceOnUse">
<stop stop-color="#ED3424"/>
<stop offset="1" stop-color="#F4A81C"/>
</linearGradient>
<clipPath id="clip0">
<rect width="172.5" height="40" fill="white"/>
</clipPath>
</defs>
</svg>
